<svg xmlns="http://www.w3.org/2000/svg" width="1254" height="1254" viewBox="0 0 1254 1254">
  <defs>
    <radialGradient id="background-gradient" cx="50%" cy="46%" r="72%">
      <stop offset="0%" stop-color="rgb(253,250,247)"/>
      <stop offset="72%" stop-color="rgb(254,249,242)"/>
      <stop offset="100%" stop-color="rgb(254,254,254)"/>
    </radialGradient>
  </defs>

  <g id="background">
    <rect width="1254" height="1254" fill="#ffffff"/>
    <rect width="1254" height="1254" rx="240" fill="url(#background-gradient)"/>
  </g>

  <g id="icon-trace" shape-rendering="crispEdges" style="image-rendering:pixelated">
    <rect id="pixel-0001" x="670" y="358" width="90" height="20" fill="rgb(210,210,120)"/><rect id="pixel-0002" x="640" y="378" width="10" height="10" fill="rgb(250,250,220)"/><rect id="pixel-0003" x="650" y="378" width="10" height="10" fill="rgb(230,230,160)"/><rect id="pixel-0004" x="660" y="378" width="30" height="10" fill="rgb(210,210,110)"/><rect id="pixel-0005" x="690" y="378" width="40" height="10" fill="rgb(210,210,120)"/><rect id="pixel-0006" x="730" y="378" width="20" height="10" fill="rgb(200,200,110)"/><rect id="pixel-0007" x="750" y="378" width="10" height="10" fill="rgb(210,210,120)"/><rect id="pixel-0008" x="640" y="388" width="20" height="10" fill="rgb(210,210,120)"/><rect id="pixel-0009" x="660" y="388" width="70" height="10" fill="rgb(210,210,110)"/><rect id="pixel-0010" x="730" y="388" width="20" height="10" fill="rgb(180,180,90)"/><rect id="pixel-0011" x="750" y="388" width="10" height="10" fill="rgb(180,190,100)"/><rect id="pixel-0012" x="640" y="398" width="10" height="10" fill="rgb(210,210,120)"/><rect id="pixel-0013" x="650" y="398" width="80" height="10" fill="rgb(210,210,110)"/><rect id="pixel-0014" x="730" y="398" width="30" height="10" fill="rgb(180,180,90)"/><rect id="pixel-0015" x="640" y="408" width="60" height="10" fill="rgb(210,210,110)"/><rect id="pixel-0016" x="700" y="408" width="50" height="10" fill="rgb(160,170,90)"/><rect id="pixel-0017" x="750" y="408" width="10" height="10" fill="rgb(180,180,100)"/><rect id="pixel-0018" x="530" y="408" width="50" height="20" fill="rgb(210,210,110)"/><rect id="pixel-0019" x="640" y="418" width="50" height="10" fill="rgb(210,210,110)"/><rect id="pixel-0020" x="690" y="418" width="10" height="10" fill="rgb(170,180,90)"/><rect id="pixel-0021" x="700" y="418" width="40" height="10" fill="rgb(160,170,90)"/><rect id="pixel-0022" x="740" y="418" width="10" height="10" fill="rgb(170,170,90)"/><rect id="pixel-0023" x="750" y="418" width="10" height="10" fill="rgb(170,180,90)"/><rect id="pixel-0024" x="540" y="428" width="40" height="10" fill="rgb(210,210,110)"/><rect id="pixel-0025" x="640" y="428" width="10" height="10" fill="rgb(210,210,120)"/><rect id="pixel-0026" x="650" y="428" width="20" height="10" fill="rgb(210,210,110)"/><rect id="pixel-0027" x="670" y="428" width="10" height="10" fill="rgb(210,210,120)"/><rect id="pixel-0028" x="680" y="428" width="10" height="10" fill="rgb(210,210,110)"/><rect id="pixel-0029" x="690" y="428" width="40" height="10" fill="rgb(160,170,90)"/><rect id="pixel-0030" x="730" y="428" width="10" height="10" fill="rgb(170,170,90)"/><rect id="pixel-0031" x="740" y="428" width="10" height="10" fill="rgb(170,180,90)"/><rect id="pixel-0032" x="750" y="428" width="10" height="10" fill="rgb(180,190,110)"/><rect id="pixel-0033" x="530" y="428" width="10" height="20" fill="rgb(210,220,120)"/><rect id="pixel-0034" x="540" y="438" width="20" height="10" fill="rgb(210,210,120)"/><rect id="pixel-0035" x="560" y="438" width="20" height="10" fill="rgb(210,210,110)"/><rect id="pixel-0036" x="580" y="438" width="30" height="10" fill="rgb(180,190,100)"/><rect id="pixel-0037" x="720" y="438" width="10" height="10" fill="rgb(170,180,90)"/><rect id="pixel-0038" x="640" y="438" width="80" height="20" fill="rgb(160,170,90)"/><rect id="pixel-0039" x="720" y="448" width="10" height="10" fill="rgb(170,170,90)"/><rect id="pixel-0040" x="560" y="448" width="50" height="20" fill="rgb(180,190,100)"/><rect id="pixel-0041" x="640" y="458" width="10" height="10" fill="rgb(170,180,90)"/><rect id="pixel-0042" x="650" y="458" width="20" height="10" fill="rgb(160,170,90)"/><rect id="pixel-0043" x="610" y="468" width="10" height="10" fill="rgb(170,180,100)"/><rect id="pixel-0044" x="620" y="468" width="10" height="10" fill="rgb(180,180,100)"/><rect id="pixel-0045" x="630" y="468" width="10" height="20" fill="rgb(170,180,90)"/><rect id="pixel-0046" x="610" y="478" width="20" height="10" fill="rgb(180,180,100)"/><rect id="pixel-0047" x="610" y="488" width="30" height="10" fill="rgb(170,180,100)"/><rect id="pixel-0048" x="570" y="498" width="20" height="10" fill="rgb(170,180,130)"/><rect id="pixel-0049" x="590" y="498" width="30" height="10" fill="rgb(170,180,140)"/><rect id="pixel-0050" x="620" y="498" width="10" height="10" fill="rgb(170,180,130)"/><rect id="pixel-0051" x="630" y="498" width="10" height="10" fill="rgb(170,180,140)"/><rect id="pixel-0052" x="640" y="498" width="10" height="10" fill="rgb(170,190,140)"/><rect id="pixel-0053" x="650" y="498" width="20" height="10" fill="rgb(170,180,140)"/><rect id="pixel-0054" x="670" y="498" width="10" height="10" fill="rgb(170,190,140)"/><rect id="pixel-0055" x="680" y="498" width="10" height="10" fill="rgb(170,180,140)"/><rect id="pixel-0056" x="690" y="498" width="60" height="10" fill="rgb(170,190,140)"/><rect id="pixel-0057" x="750" y="498" width="10" height="10" fill="rgb(170,180,130)"/><rect id="pixel-0058" x="760" y="498" width="20" height="10" fill="rgb(160,180,130)"/><rect id="pixel-0059" x="470" y="498" width="100" height="20" fill="rgb(160,180,130)"/><rect id="pixel-0060" x="570" y="508" width="10" height="10" fill="rgb(170,180,130)"/><rect id="pixel-0061" x="580" y="508" width="60" height="10" fill="rgb(170,180,140)"/><rect id="pixel-0062" x="640" y="508" width="30" height="10" fill="rgb(170,190,140)"/><rect id="pixel-0063" x="670" y="508" width="10" height="10" fill="rgb(170,180,140)"/><rect id="pixel-0064" x="680" y="508" width="10" height="10" fill="rgb(170,180,130)"/><rect id="pixel-0065" x="690" y="508" width="10" height="10" fill="rgb(170,180,140)"/><rect id="pixel-0066" x="700" y="508" width="50" height="10" fill="rgb(170,190,140)"/><rect id="pixel-0067" x="760" y="508" width="20" height="10" fill="rgb(170,180,130)"/><rect id="pixel-0068" x="750" y="508" width="10" height="20" fill="rgb(170,180,140)"/><rect id="pixel-0069" x="470" y="518" width="10" height="10" fill="rgb(160,180,140)"/><rect id="pixel-0070" x="480" y="518" width="80" height="10" fill="rgb(160,180,130)"/><rect id="pixel-0071" x="560" y="518" width="80" height="10" fill="rgb(170,180,140)"/><rect id="pixel-0072" x="640" y="518" width="10" height="10" fill="rgb(170,190,140)"/><rect id="pixel-0073" x="650" y="518" width="40" height="10" fill="rgb(170,180,140)"/><rect id="pixel-0074" x="690" y="518" width="10" height="10" fill="rgb(170,190,140)"/><rect id="pixel-0075" x="700" y="518" width="10" height="10" fill="rgb(170,180,140)"/><rect id="pixel-0076" x="710" y="518" width="40" height="10" fill="rgb(170,190,140)"/><rect id="pixel-0077" x="760" y="518" width="10" height="10" fill="rgb(160,180,130)"/><rect id="pixel-0078" x="770" y="518" width="10" height="10" fill="rgb(170,180,140)"/><rect id="pixel-0079" x="780" y="518" width="10" height="10" fill="rgb(210,220,200)"/><rect id="pixel-0080" x="420" y="528" width="50" height="10" fill="rgb(170,190,140)"/><rect id="pixel-0081" x="470" y="528" width="310" height="20" fill="rgb(200,210,160)"/><rect id="pixel-0082" x="780" y="528" width="60" height="20" fill="rgb(170,190,140)"/><rect id="pixel-0083" x="420" y="538" width="30" height="10" fill="rgb(170,190,140)"/><rect id="pixel-0084" x="450" y="538" width="10" height="10" fill="rgb(170,180,140)"/><rect id="pixel-0085" x="460" y="538" width="10" height="10" fill="rgb(170,190,140)"/><rect id="pixel-0086" x="390" y="548" width="10" height="10" fill="rgb(220,220,190)"/><rect id="pixel-0087" x="400" y="548" width="10" height="10" fill="rgb(200,210,170)"/><rect id="pixel-0088" x="410" y="548" width="10" height="10" fill="rgb(180,200,150)"/><rect id="pixel-0089" x="420" y="548" width="30" height="10" fill="rgb(180,190,140)"/><rect id="pixel-0090" x="450" y="548" width="20" height="10" fill="rgb(190,200,150)"/><rect id="pixel-0091" x="470" y="548" width="320" height="10" fill="rgb(200,210,160)"/><rect id="pixel-0092" x="790" y="548" width="10" height="10" fill="rgb(190,200,150)"/><rect id="pixel-0093" x="800" y="548" width="10" height="10" fill="rgb(180,190,150)"/><rect id="pixel-0094" x="810" y="548" width="30" height="10" fill="rgb(170,190,140)"/><rect id="pixel-0095" x="840" y="548" width="10" height="10" fill="rgb(190,200,160)"/><rect id="pixel-0096" x="850" y="548" width="10" height="10" fill="rgb(200,210,170)"/><rect id="pixel-0097" x="390" y="558" width="60" height="10" fill="rgb(180,200,150)"/><rect id="pixel-0098" x="810" y="558" width="50" height="10" fill="rgb(170,190,140)"/><rect id="pixel-0099" x="450" y="558" width="360" height="20" fill="rgb(200,210,160)"/><rect id="pixel-0100" x="390" y="568" width="30" height="10" fill="rgb(180,200,150)"/><rect id="pixel-0101" x="420" y="568" width="10" height="10" fill="rgb(180,190,150)"/><rect id="pixel-0102" x="430" y="568" width="20" height="10" fill="rgb(180,200,150)"/><rect id="pixel-0103" x="810" y="568" width="20" height="10" fill="rgb(170,180,140)"/><rect id="pixel-0104" x="830" y="568" width="30" height="10" fill="rgb(170,190,140)"/><rect id="pixel-0105" x="390" y="578" width="20" height="10" fill="rgb(180,200,150)"/><rect id="pixel-0106" x="410" y="578" width="10" height="10" fill="rgb(180,190,140)"/><rect id="pixel-0107" x="420" y="578" width="10" height="10" fill="rgb(190,210,160)"/><rect id="pixel-0108" x="430" y="578" width="70" height="10" fill="rgb(200,210,160)"/><rect id="pixel-0109" x="500" y="578" width="210" height="10" fill="rgb(150,170,120)"/><rect id="pixel-0110" x="710" y="578" width="10" height="10" fill="rgb(150,180,120)"/><rect id="pixel-0111" x="720" y="578" width="10" height="10" fill="rgb(150,170,120)"/><rect id="pixel-0112" x="730" y="578" width="20" height="10" fill="rgb(160,180,130)"/><rect id="pixel-0113" x="750" y="578" width="80" height="10" fill="rgb(200,210,160)"/><rect id="pixel-0114" x="830" y="578" width="10" height="10" fill="rgb(180,200,150)"/><rect id="pixel-0115" x="390" y="588" width="10" height="10" fill="rgb(180,200,150)"/><rect id="pixel-0116" x="410" y="588" width="10" height="10" fill="rgb(180,190,150)"/><rect id="pixel-0117" x="500" y="588" width="230" height="10" fill="rgb(150,170,120)"/><rect id="pixel-0118" x="730" y="588" width="20" height="10" fill="rgb(160,180,120)"/><rect id="pixel-0119" x="750" y="588" width="10" height="10" fill="rgb(190,200,160)"/><rect id="pixel-0120" x="860" y="558" width="10" height="50" fill="rgb(200,210,180)"/><rect id="pixel-0121" x="840" y="578" width="20" height="30" fill="rgb(170,190,140)"/><rect id="pixel-0122" x="400" y="588" width="10" height="20" fill="rgb(180,190,140)"/><rect id="pixel-0123" x="420" y="588" width="80" height="20" fill="rgb(200,210,160)"/><rect id="pixel-0124" x="760" y="588" width="80" height="20" fill="rgb(200,210,160)"/><rect id="pixel-0125" x="390" y="598" width="10" height="10" fill="rgb(180,190,150)"/><rect id="pixel-0126" x="410" y="598" width="10" height="10" fill="rgb(180,200,150)"/><rect id="pixel-0127" x="500" y="598" width="240" height="10" fill="rgb(150,170,120)"/><rect id="pixel-0128" x="740" y="598" width="10" height="10" fill="rgb(160,170,120)"/><rect id="pixel-0129" x="750" y="598" width="10" height="10" fill="rgb(190,210,160)"/><rect id="pixel-0130" x="360" y="608" width="10" height="10" fill="rgb(170,180,130)"/><rect id="pixel-0131" x="370" y="608" width="20" height="10" fill="rgb(170,180,140)"/><rect id="pixel-0132" x="860" y="608" width="10" height="10" fill="rgb(190,200,160)"/><rect id="pixel-0133" x="870" y="608" width="10" height="10" fill="rgb(170,180,140)"/><rect id="pixel-0134" x="880" y="608" width="10" height="10" fill="rgb(170,190,140)"/><rect id="pixel-0135" x="360" y="618" width="20" height="10" fill="rgb(170,180,130)"/><rect id="pixel-0136" x="380" y="618" width="10" height="10" fill="rgb(170,180,140)"/><rect id="pixel-0137" x="860" y="618" width="10" height="10" fill="rgb(190,200,150)"/><rect id="pixel-0138" x="390" y="608" width="60" height="30" fill="rgb(200,210,160)"/><rect id="pixel-0139" x="450" y="608" width="50" height="30" fill="rgb(150,170,120)"/><rect id="pixel-0140" x="760" y="608" width="50" height="30" fill="rgb(150,170,120)"/><rect id="pixel-0141" x="810" y="608" width="50" height="30" fill="rgb(200,210,160)"/><rect id="pixel-0142" x="370" y="628" width="20" height="10" fill="rgb(170,180,130)"/><rect id="pixel-0143" x="860" y="628" width="10" height="10" fill="rgb(190,200,160)"/><rect id="pixel-0144" x="870" y="618" width="20" height="30" fill="rgb(170,180,140)"/><rect id="pixel-0145" x="360" y="628" width="10" height="20" fill="rgb(170,180,140)"/><rect id="pixel-0146" x="370" y="638" width="10" height="10" fill="rgb(160,180,130)"/><rect id="pixel-0147" x="380" y="638" width="10" height="10" fill="rgb(170,180,140)"/><rect id="pixel-0148" x="420" y="638" width="10" height="10" fill="rgb(160,180,130)"/><rect id="pixel-0149" x="430" y="638" width="20" height="10" fill="rgb(150,170,120)"/><rect id="pixel-0150" x="810" y="638" width="10" height="10" fill="rgb(150,170,120)"/><rect id="pixel-0151" x="820" y="638" width="10" height="10" fill="rgb(160,170,120)"/><rect id="pixel-0152" x="830" y="638" width="10" height="10" fill="rgb(160,180,130)"/><rect id="pixel-0153" x="860" y="638" width="10" height="10" fill="rgb(190,210,160)"/><rect id="pixel-0154" x="360" y="648" width="20" height="10" fill="rgb(170,180,140)"/><rect id="pixel-0155" x="380" y="648" width="10" height="10" fill="rgb(170,180,130)"/><rect id="pixel-0156" x="420" y="648" width="10" height="10" fill="rgb(150,170,120)"/><rect id="pixel-0157" x="430" y="648" width="10" height="10" fill="rgb(160,170,120)"/><rect id="pixel-0158" x="440" y="648" width="10" height="10" fill="rgb(160,180,130)"/><rect id="pixel-0159" x="810" y="648" width="10" height="10" fill="rgb(160,180,120)"/><rect id="pixel-0160" x="820" y="648" width="20" height="10" fill="rgb(160,170,120)"/><rect id="pixel-0161" x="870" y="648" width="10" height="10" fill="rgb(170,180,140)"/><rect id="pixel-0162" x="880" y="648" width="10" height="10" fill="rgb(170,190,140)"/><rect id="pixel-0163" x="390" y="638" width="30" height="30" fill="rgb(200,210,160)"/><rect id="pixel-0164" x="840" y="638" width="20" height="30" fill="rgb(200,210,160)"/><rect id="pixel-0165" x="860" y="648" width="10" height="20" fill="rgb(190,200,160)"/><rect id="pixel-0166" x="360" y="658" width="10" height="10" fill="rgb(170,190,140)"/><rect id="pixel-0167" x="370" y="658" width="20" height="10" fill="rgb(170,180,140)"/><rect id="pixel-0168" x="420" y="658" width="20" height="10" fill="rgb(160,180,130)"/><rect id="pixel-0169" x="440" y="658" width="10" height="10" fill="rgb(190,200,170)"/><rect id="pixel-0170" x="810" y="658" width="10" height="10" fill="rgb(160,170,120)"/><rect id="pixel-0171" x="820" y="658" width="20" height="10" fill="rgb(160,180,130)"/><rect id="pixel-0172" x="870" y="658" width="10" height="10" fill="rgb(170,190,140)"/><rect id="pixel-0173" x="880" y="658" width="10" height="10" fill="rgb(170,180,140)"/><rect id="pixel-0174" x="890" y="658" width="10" height="10" fill="rgb(210,220,180)"/><rect id="pixel-0175" x="330" y="668" width="10" height="10" fill="rgb(190,200,170)"/><rect id="pixel-0176" x="390" y="668" width="20" height="10" fill="rgb(160,180,130)"/><rect id="pixel-0177" x="410" y="668" width="10" height="10" fill="rgb(160,180,120)"/><rect id="pixel-0178" x="860" y="668" width="10" height="10" fill="rgb(170,190,140)"/><rect id="pixel-0179" x="890" y="668" width="10" height="10" fill="rgb(170,180,140)"/><rect id="pixel-0180" x="900" y="668" width="10" height="10" fill="rgb(170,180,130)"/><rect id="pixel-0181" x="910" y="668" width="10" height="10" fill="rgb(160,180,130)"/><rect id="pixel-0182" x="840" y="668" width="20" height="20" fill="rgb(160,180,130)"/><rect id="pixel-0183" x="390" y="678" width="10" height="10" fill="rgb(160,180,130)"/><rect id="pixel-0184" x="400" y="678" width="10" height="10" fill="rgb(160,180,120)"/><rect id="pixel-0185" x="410" y="678" width="10" height="10" fill="rgb(160,180,130)"/><rect id="pixel-0186" x="860" y="678" width="10" height="10" fill="rgb(170,180,140)"/><rect id="pixel-0187" x="890" y="678" width="20" height="10" fill="rgb(160,180,130)"/><rect id="pixel-0188" x="910" y="678" width="10" height="10" fill="rgb(170,180,140)"/><rect id="pixel-0189" x="840" y="688" width="10" height="10" fill="rgb(170,190,130)"/><rect id="pixel-0190" x="850" y="688" width="10" height="10" fill="rgb(170,180,130)"/><rect id="pixel-0191" x="860" y="688" width="10" height="10" fill="rgb(200,210,130)"/><rect id="pixel-0192" x="890" y="688" width="10" height="10" fill="rgb(160,180,130)"/><rect id="pixel-0193" x="900" y="688" width="20" height="10" fill="rgb(170,180,130)"/><rect id="pixel-0194" x="840" y="698" width="20" height="10" fill="rgb(250,220,110)"/><rect id="pixel-0195" x="860" y="698" width="10" height="10" fill="rgb(250,220,120)"/><rect id="pixel-0196" x="890" y="698" width="20" height="10" fill="rgb(160,180,130)"/><rect id="pixel-0197" x="910" y="698" width="10" height="10" fill="rgb(170,180,140)"/><rect id="pixel-0198" x="870" y="668" width="20" height="50" fill="rgb(200,210,160)"/><rect id="pixel-0199" x="390" y="688" width="20" height="30" fill="rgb(160,180,130)"/><rect id="pixel-0200" x="410" y="688" width="10" height="30" fill="rgb(160,180,120)"/><rect id="pixel-0201" x="840" y="708" width="30" height="10" fill="rgb(250,220,120)"/><rect id="pixel-0202" x="890" y="708" width="20" height="10" fill="rgb(170,180,140)"/><rect id="pixel-0203" x="910" y="708" width="10" height="10" fill="rgb(170,180,130)"/><rect id="pixel-0204" x="810" y="718" width="30" height="10" fill="rgb(250,220,120)"/><rect id="pixel-0205" x="840" y="718" width="20" height="10" fill="rgb(250,240,180)"/><rect id="pixel-0206" x="860" y="718" width="10" height="10" fill="rgb(250,220,140)"/><rect id="pixel-0207" x="870" y="718" width="10" height="10" fill="rgb(230,210,120)"/><rect id="pixel-0208" x="880" y="718" width="10" height="10" fill="rgb(230,210,110)"/><rect id="pixel-0209" x="890" y="718" width="10" height="10" fill="rgb(180,190,120)"/><rect id="pixel-0210" x="900" y="718" width="10" height="10" fill="rgb(170,190,130)"/><rect id="pixel-0211" x="910" y="718" width="10" height="10" fill="rgb(170,180,120)"/><rect id="pixel-0212" x="510" y="728" width="10" height="10" fill="rgb(100,120,70)"/><rect id="pixel-0213" x="520" y="728" width="10" height="10" fill="rgb(90,110,70)"/><rect id="pixel-0214" x="530" y="728" width="10" height="10" fill="rgb(100,120,70)"/><rect id="pixel-0215" x="890" y="728" width="10" height="10" fill="rgb(240,200,90)"/><rect id="pixel-0216" x="330" y="678" width="10" height="70" fill="rgb(190,200,160)"/><rect id="pixel-0217" x="500" y="728" width="10" height="20" fill="rgb(170,180,160)"/><rect id="pixel-0218" x="710" y="728" width="40" height="20" fill="rgb(100,120,70)"/><rect id="pixel-0219" x="810" y="728" width="30" height="20" fill="rgb(250,210,90)"/><rect id="pixel-0220" x="870" y="728" width="20" height="20" fill="rgb(250,210,80)"/><rect id="pixel-0221" x="900" y="728" width="20" height="20" fill="rgb(180,190,120)"/><rect id="pixel-0222" x="510" y="738" width="30" height="10" fill="rgb(100,120,70)"/><rect id="pixel-0223" x="890" y="738" width="10" height="10" fill="rgb(240,200,80)"/><rect id="pixel-0224" x="500" y="748" width="10" height="10" fill="rgb(170,190,160)"/><rect id="pixel-0225" x="510" y="748" width="10" height="10" fill="rgb(90,110,70)"/><rect id="pixel-0226" x="520" y="748" width="10" height="10" fill="rgb(100,120,70)"/><rect id="pixel-0227" x="530" y="748" width="10" height="10" fill="rgb(90,120,60)"/><rect id="pixel-0228" x="710" y="748" width="10" height="10" fill="rgb(90,120,70)"/><rect id="pixel-0229" x="720" y="748" width="30" height="10" fill="rgb(100,120,70)"/><rect id="pixel-0230" x="830" y="748" width="10" height="10" fill="rgb(250,240,200)"/><rect id="pixel-0231" x="840" y="748" width="10" height="10" fill="rgb(250,220,120)"/><rect id="pixel-0232" x="850" y="748" width="10" height="10" fill="rgb(250,220,110)"/><rect id="pixel-0233" x="860" y="748" width="10" height="10" fill="rgb(240,210,130)"/><rect id="pixel-0234" x="870" y="748" width="20" height="10" fill="rgb(210,210,140)"/><rect id="pixel-0235" x="890" y="748" width="10" height="10" fill="rgb(180,190,130)"/><rect id="pixel-0236" x="900" y="748" width="20" height="10" fill="rgb(170,180,130)"/><rect id="pixel-0237" x="540" y="728" width="10" height="40" fill="rgb(120,140,90)"/><rect id="pixel-0238" x="330" y="748" width="10" height="20" fill="rgb(190,200,170)"/><rect id="pixel-0239" x="500" y="758" width="10" height="10" fill="rgb(180,190,160)"/><rect id="pixel-0240" x="510" y="758" width="10" height="10" fill="rgb(90,120,70)"/><rect id="pixel-0241" x="520" y="758" width="20" height="10" fill="rgb(100,120,70)"/><rect id="pixel-0242" x="710" y="758" width="40" height="10" fill="rgb(100,120,70)"/><rect id="pixel-0243" x="890" y="758" width="20" height="10" fill="rgb(170,180,140)"/><rect id="pixel-0244" x="910" y="758" width="10" height="10" fill="rgb(170,180,130)"/><rect id="pixel-0245" x="840" y="758" width="30" height="20" fill="rgb(240,200,70)"/><rect id="pixel-0246" x="330" y="768" width="10" height="10" fill="rgb(190,200,160)"/><rect id="pixel-0247" x="500" y="768" width="10" height="10" fill="rgb(170,180,150)"/><rect id="pixel-0248" x="510" y="768" width="20" height="10" fill="rgb(100,120,70)"/><rect id="pixel-0249" x="530" y="768" width="10" height="10" fill="rgb(90,110,70)"/><rect id="pixel-0250" x="540" y="768" width="10" height="10" fill="rgb(120,140,100)"/><rect id="pixel-0251" x="710" y="768" width="20" height="10" fill="rgb(90,120,70)"/><rect id="pixel-0252" x="730" y="768" width="20" height="10" fill="rgb(100,120,70)"/><rect id="pixel-0253" x="890" y="768" width="20" height="10" fill="rgb(170,180,130)"/><rect id="pixel-0254" x="390" y="718" width="30" height="70" fill="rgb(160,180,130)"/><rect id="pixel-0255" x="910" y="768" width="10" height="20" fill="rgb(170,180,140)"/><rect id="pixel-0256" x="470" y="778" width="40" height="10" fill="rgb(250,220,190)"/><rect id="pixel-0257" x="600" y="778" width="10" height="10" fill="rgb(110,130,80)"/><rect id="pixel-0258" x="610" y="778" width="40" height="10" fill="rgb(100,120,70)"/><rect id="pixel-0259" x="840" y="778" width="10" height="10" fill="rgb(170,190,130)"/><rect id="pixel-0260" x="850" y="778" width="10" height="10" fill="rgb(170,180,130)"/><rect id="pixel-0261" x="860" y="778" width="10" height="10" fill="rgb(200,200,130)"/><rect id="pixel-0262" x="900" y="778" width="10" height="10" fill="rgb(170,180,130)"/><rect id="pixel-0263" x="460" y="778" width="10" height="20" fill="rgb(250,230,200)"/><rect id="pixel-0264" x="390" y="788" width="20" height="10" fill="rgb(160,180,130)"/><rect id="pixel-0265" x="410" y="788" width="10" height="10" fill="rgb(160,180,120)"/><rect id="pixel-0266" x="470" y="788" width="30" height="10" fill="rgb(250,220,190)"/><rect id="pixel-0267" x="600" y="788" width="50" height="10" fill="rgb(100,120,70)"/><rect id="pixel-0268" x="860" y="788" width="10" height="10" fill="rgb(180,190,150)"/><rect id="pixel-0269" x="900" y="788" width="20" height="10" fill="rgb(170,180,130)"/><rect id="pixel-0270" x="340" y="668" width="20" height="140" fill="rgb(160,180,130)"/><rect id="pixel-0271" x="360" y="668" width="30" height="140" fill="rgb(200,210,160)"/><rect id="pixel-0272" x="870" y="758" width="20" height="50" fill="rgb(200,210,160)"/><rect id="pixel-0273" x="330" y="778" width="10" height="30" fill="rgb(190,200,170)"/><rect id="pixel-0274" x="750" y="778" width="40" height="30" fill="rgb(250,220,190)"/><rect id="pixel-0275" x="890" y="778" width="10" height="30" fill="rgb(170,180,140)"/><rect id="pixel-0276" x="500" y="788" width="10" height="20" fill="rgb(250,230,210)"/><rect id="pixel-0277" x="840" y="788" width="20" height="20" fill="rgb(160,180,130)"/><rect id="pixel-0278" x="390" y="798" width="30" height="10" fill="rgb(160,180,130)"/><rect id="pixel-0279" x="460" y="798" width="40" height="10" fill="rgb(250,220,190)"/><rect id="pixel-0280" x="610" y="798" width="40" height="10" fill="rgb(210,220,200)"/><rect id="pixel-0281" x="860" y="798" width="10" height="10" fill="rgb(180,190,140)"/><rect id="pixel-0282" x="900" y="798" width="10" height="10" fill="rgb(170,180,130)"/><rect id="pixel-0283" x="910" y="798" width="10" height="10" fill="rgb(170,190,140)"/><rect id="pixel-0284" x="360" y="808" width="60" height="20" fill="rgb(160,180,130)"/><rect id="pixel-0285" x="840" y="808" width="50" height="20" fill="rgb(160,180,130)"/><rect id="pixel-0286" x="360" y="828" width="10" height="10" fill="rgb(160,180,140)"/><rect id="pixel-0287" x="370" y="828" width="40" height="10" fill="rgb(160,180,130)"/><rect id="pixel-0288" x="410" y="828" width="10" height="10" fill="rgb(160,170,120)"/><rect id="pixel-0289" x="840" y="828" width="40" height="10" fill="rgb(160,180,130)"/><rect id="pixel-0290" x="880" y="828" width="10" height="10" fill="rgb(160,180,140)"/><rect id="pixel-0291" x="390" y="838" width="20" height="10" fill="rgb(130,150,100)"/><rect id="pixel-0292" x="410" y="838" width="10" height="10" fill="rgb(130,160,100)"/><rect id="pixel-0293" x="420" y="838" width="10" height="10" fill="rgb(140,160,110)"/><rect id="pixel-0294" x="430" y="838" width="10" height="10" fill="rgb(150,170,110)"/><rect id="pixel-0295" x="440" y="838" width="10" height="10" fill="rgb(140,170,120)"/><rect id="pixel-0296" x="840" y="838" width="20" height="10" fill="rgb(130,150,100)"/><rect id="pixel-0297" x="860" y="838" width="10" height="10" fill="rgb(170,190,150)"/><rect id="pixel-0298" x="390" y="848" width="10" height="10" fill="rgb(140,160,100)"/><rect id="pixel-0299" x="400" y="848" width="20" height="10" fill="rgb(130,150,100)"/><rect id="pixel-0300" x="420" y="848" width="20" height="10" fill="rgb(140,160,110)"/><rect id="pixel-0301" x="440" y="848" width="10" height="10" fill="rgb(150,170,120)"/><rect id="pixel-0302" x="840" y="848" width="10" height="10" fill="rgb(130,150,100)"/><rect id="pixel-0303" x="850" y="848" width="10" height="10" fill="rgb(140,160,100)"/><rect id="pixel-0304" x="860" y="848" width="10" height="10" fill="rgb(180,190,160)"/><rect id="pixel-0305" x="810" y="838" width="30" height="30" fill="rgb(140,160,110)"/><rect id="pixel-0306" x="390" y="858" width="20" height="10" fill="rgb(130,150,100)"/><rect id="pixel-0307" x="410" y="858" width="40" height="10" fill="rgb(140,160,110)"/><rect id="pixel-0308" x="840" y="858" width="20" height="10" fill="rgb(130,150,100)"/><rect id="pixel-0309" x="420" y="868" width="10" height="10" fill="rgb(140,160,100)"/><rect id="pixel-0310" x="430" y="868" width="70" height="10" fill="rgb(140,160,110)"/><rect id="pixel-0311" x="750" y="868" width="10" height="10" fill="rgb(150,170,120)"/><rect id="pixel-0312" x="760" y="868" width="60" height="10" fill="rgb(140,160,110)"/><rect id="pixel-0313" x="820" y="868" width="10" height="10" fill="rgb(130,150,100)"/><rect id="pixel-0314" x="830" y="868" width="10" height="10" fill="rgb(130,160,100)"/><rect id="pixel-0315" x="420" y="878" width="80" height="10" fill="rgb(140,160,110)"/><rect id="pixel-0316" x="810" y="878" width="10" height="10" fill="rgb(140,160,100)"/><rect id="pixel-0317" x="820" y="878" width="20" height="10" fill="rgb(140,160,110)"/><rect id="pixel-0318" x="750" y="878" width="60" height="20" fill="rgb(140,160,110)"/><rect id="pixel-0319" x="420" y="888" width="10" height="10" fill="rgb(160,180,130)"/><rect id="pixel-0320" x="430" y="888" width="10" height="10" fill="rgb(150,170,130)"/><rect id="pixel-0321" x="440" y="888" width="60" height="10" fill="rgb(140,160,110)"/><rect id="pixel-0322" x="500" y="888" width="10" height="10" fill="rgb(150,170,120)"/><rect id="pixel-0323" x="510" y="888" width="10" height="10" fill="rgb(220,220,200)"/><rect id="pixel-0324" x="520" y="888" width="150" height="10" fill="rgb(220,220,210)"/><rect id="pixel-0325" x="670" y="888" width="10" height="10" fill="rgb(210,220,200)"/><rect id="pixel-0326" x="680" y="888" width="20" height="10" fill="rgb(220,220,210)"/><rect id="pixel-0327" x="700" y="888" width="10" height="10" fill="rgb(210,220,210)"/><rect id="pixel-0328" x="710" y="888" width="30" height="10" fill="rgb(220,220,210)"/><rect id="pixel-0329" x="740" y="888" width="10" height="10" fill="rgb(210,220,200)"/><rect id="pixel-0330" x="810" y="888" width="10" height="10" fill="rgb(160,170,130)"/><rect id="pixel-0331" x="820" y="888" width="10" height="10" fill="rgb(160,180,140)"/><rect id="pixel-0332" x="450" y="898" width="10" height="10" fill="rgb(130,160,100)"/><rect id="pixel-0333" x="460" y="898" width="10" height="10" fill="rgb(130,150,100)"/><rect id="pixel-0334" x="470" y="898" width="10" height="10" fill="rgb(130,160,100)"/><rect id="pixel-0335" x="480" y="898" width="20" height="10" fill="rgb(130,150,100)"/><rect id="pixel-0336" x="500" y="898" width="90" height="10" fill="rgb(130,160,100)"/><rect id="pixel-0337" x="590" y="898" width="20" height="10" fill="rgb(130,150,100)"/><rect id="pixel-0338" x="610" y="898" width="10" height="10" fill="rgb(130,160,100)"/><rect id="pixel-0339" x="620" y="898" width="20" height="10" fill="rgb(130,150,100)"/><rect id="pixel-0340" x="640" y="898" width="20" height="10" fill="rgb(130,160,100)"/><rect id="pixel-0341" x="660" y="898" width="30" height="10" fill="rgb(130,150,100)"/><rect id="pixel-0342" x="690" y="898" width="10" height="10" fill="rgb(130,160,100)"/><rect id="pixel-0343" x="700" y="898" width="100" height="10" fill="rgb(130,150,100)"/><rect id="pixel-0344" x="800" y="898" width="10" height="10" fill="rgb(140,160,100)"/><rect id="pixel-0345" x="450" y="908" width="40" height="10" fill="rgb(130,150,100)"/><rect id="pixel-0346" x="490" y="908" width="10" height="10" fill="rgb(130,160,110)"/><rect id="pixel-0347" x="500" y="908" width="50" height="10" fill="rgb(130,160,100)"/><rect id="pixel-0348" x="550" y="908" width="20" height="10" fill="rgb(140,160,110)"/><rect id="pixel-0349" x="570" y="908" width="10" height="10" fill="rgb(130,160,100)"/><rect id="pixel-0350" x="580" y="908" width="10" height="10" fill="rgb(130,150,100)"/><rect id="pixel-0351" x="590" y="908" width="80" height="10" fill="rgb(130,160,100)"/><rect id="pixel-0352" x="670" y="908" width="30" height="10" fill="rgb(130,150,100)"/><rect id="pixel-0353" x="700" y="908" width="10" height="10" fill="rgb(130,160,100)"/><rect id="pixel-0354" x="710" y="908" width="10" height="10" fill="rgb(140,160,100)"/><rect id="pixel-0355" x="720" y="908" width="70" height="10" fill="rgb(130,150,100)"/><rect id="pixel-0356" x="790" y="908" width="20" height="10" fill="rgb(130,160,100)"/><rect id="pixel-0357" x="450" y="918" width="10" height="10" fill="rgb(230,240,220)"/><rect id="pixel-0358" x="460" y="918" width="340" height="10" fill="rgb(230,230,220)"/>
  </g>
</svg>
